<mxfile host="app.diagrams.net" modified="2022-07-07T13:24:57.903Z" agent="5.0 (Windows NT 10.0; Win64; x64) AppleWebKit/537.36 (KHTML, like Gecko) Chrome/103.0.0.0 Safari/537.36" etag="lRxK8kMZlZCHr1KkJVw1" version="20.0.3" type="github">
  <diagram id="J950Aw94-VmknTpwOGAG" name="Page-1">
    <mxGraphModel dx="1209" dy="554" grid="1" gridSize="10" guides="1" tooltips="1" connect="1" arrows="1" fold="1" page="1" pageScale="1" pageWidth="850" pageHeight="1100" math="0" shadow="0">
      <root>
        <mxCell id="0" />
        <mxCell id="1" parent="0" />
        <mxCell id="HSIOpty1WGMbiYtMBlIi-1" value="" style="rounded=0;whiteSpace=wrap;html=1;" vertex="1" parent="1">
          <mxGeometry x="80" y="120" width="160" height="320" as="geometry" />
        </mxCell>
        <mxCell id="HSIOpty1WGMbiYtMBlIi-2" value="ConsumerUI" style="rounded=0;whiteSpace=wrap;html=1;fillColor=#fff2cc;strokeColor=#d6b656;" vertex="1" parent="1">
          <mxGeometry x="95" y="150" width="130" height="50" as="geometry" />
        </mxCell>
        <mxCell id="HSIOpty1WGMbiYtMBlIi-3" value="Card UI" style="rounded=0;whiteSpace=wrap;html=1;fillColor=#ffe6cc;strokeColor=#d79b00;" vertex="1" parent="1">
          <mxGeometry x="95" y="220" width="130" height="50" as="geometry" />
        </mxCell>
        <mxCell id="HSIOpty1WGMbiYtMBlIi-4" value="OPS UI" style="rounded=0;whiteSpace=wrap;html=1;fillColor=#d80073;fontColor=#ffffff;strokeColor=#A50040;" vertex="1" parent="1">
          <mxGeometry x="95" y="290" width="130" height="50" as="geometry" />
        </mxCell>
        <mxCell id="HSIOpty1WGMbiYtMBlIi-5" value="" style="rounded=0;whiteSpace=wrap;html=1;" vertex="1" parent="1">
          <mxGeometry x="280" y="120" width="160" height="320" as="geometry" />
        </mxCell>
        <mxCell id="HSIOpty1WGMbiYtMBlIi-6" value="ConsumerUI" style="rounded=0;whiteSpace=wrap;html=1;fillColor=#fff2cc;strokeColor=#d6b656;" vertex="1" parent="1">
          <mxGeometry x="295" y="150" width="130" height="50" as="geometry" />
        </mxCell>
        <mxCell id="HSIOpty1WGMbiYtMBlIi-7" value="Card UI" style="rounded=0;whiteSpace=wrap;html=1;fillColor=#ffe6cc;strokeColor=#d79b00;" vertex="1" parent="1">
          <mxGeometry x="295" y="220" width="130" height="50" as="geometry" />
        </mxCell>
        <mxCell id="HSIOpty1WGMbiYtMBlIi-8" value="OPS UI" style="rounded=0;whiteSpace=wrap;html=1;fillColor=#d80073;fontColor=#ffffff;strokeColor=#A50040;" vertex="1" parent="1">
          <mxGeometry x="295" y="290" width="130" height="50" as="geometry" />
        </mxCell>
        <mxCell id="HSIOpty1WGMbiYtMBlIi-9" value="LS" style="text;html=1;align=center;verticalAlign=middle;resizable=0;points=[];autosize=1;strokeColor=none;fillColor=none;" vertex="1" parent="1">
          <mxGeometry x="80" y="85" width="40" height="30" as="geometry" />
        </mxCell>
        <mxCell id="HSIOpty1WGMbiYtMBlIi-10" value="Drafty" style="text;html=1;align=center;verticalAlign=middle;resizable=0;points=[];autosize=1;strokeColor=none;fillColor=none;" vertex="1" parent="1">
          <mxGeometry x="280" y="85" width="60" height="30" as="geometry" />
        </mxCell>
        <mxCell id="HSIOpty1WGMbiYtMBlIi-11" value="" style="rounded=0;whiteSpace=wrap;html=1;" vertex="1" parent="1">
          <mxGeometry x="480" y="120" width="160" height="320" as="geometry" />
        </mxCell>
        <mxCell id="HSIOpty1WGMbiYtMBlIi-12" value="FrontEnd" style="text;html=1;align=center;verticalAlign=middle;resizable=0;points=[];autosize=1;strokeColor=none;fillColor=none;" vertex="1" parent="1">
          <mxGeometry x="480" y="90" width="70" height="30" as="geometry" />
        </mxCell>
        <mxCell id="HSIOpty1WGMbiYtMBlIi-13" value="Rendering Engine" style="rounded=0;whiteSpace=wrap;html=1;fillColor=#fff2cc;strokeColor=#d6b656;" vertex="1" parent="1">
          <mxGeometry x="495" y="150" width="130" height="50" as="geometry" />
        </mxCell>
        <mxCell id="HSIOpty1WGMbiYtMBlIi-14" value="BFF" style="rounded=0;whiteSpace=wrap;html=1;fillColor=none;strokeColor=#d6b656;" vertex="1" parent="1">
          <mxGeometry x="495" y="220" width="130" height="50" as="geometry" />
        </mxCell>
        <mxCell id="HSIOpty1WGMbiYtMBlIi-15" value="NextJS (LS CUI)" style="rounded=0;whiteSpace=wrap;html=1;dashed=1;fillColor=#dae8fc;strokeColor=#6c8ebf;" vertex="1" parent="1">
          <mxGeometry x="495" y="290" width="130" height="50" as="geometry" />
        </mxCell>
        <mxCell id="HSIOpty1WGMbiYtMBlIi-17" value="OPS UI" style="rounded=0;whiteSpace=wrap;html=1;" vertex="1" parent="1">
          <mxGeometry x="92" y="370" width="130" height="50" as="geometry" />
        </mxCell>
        <mxCell id="HSIOpty1WGMbiYtMBlIi-18" value="Middlewares" style="rounded=0;whiteSpace=wrap;html=1;" vertex="1" parent="1">
          <mxGeometry x="102" y="380" width="130" height="50" as="geometry" />
        </mxCell>
        <mxCell id="HSIOpty1WGMbiYtMBlIi-19" value="OPS UI" style="rounded=0;whiteSpace=wrap;html=1;" vertex="1" parent="1">
          <mxGeometry x="290" y="370" width="130" height="50" as="geometry" />
        </mxCell>
        <mxCell id="HSIOpty1WGMbiYtMBlIi-20" value="Middlewares" style="rounded=0;whiteSpace=wrap;html=1;" vertex="1" parent="1">
          <mxGeometry x="300" y="380" width="130" height="50" as="geometry" />
        </mxCell>
      </root>
    </mxGraphModel>
  </diagram>
</mxfile>
